<svg xmlns="http://www.w3.org/2000/svg" xmlns:xlink="http://www.w3.org/1999/xlink" width="92" height="100" viewBox="0 0 653 710"><defs><path id="a" d="M0 160h659v555H0z"/></defs><clipPath id="b"><use xlink:href="#a" overflow="visible"/></clipPath><g clip-path="url(#b)"><linearGradient id="c" x1="277.262" x2="277.262" y1="157.87" y2="552" gradientTransform="matrix(1 0 0 -1 0 712)" gradientUnits="userSpaceOnUse"><stop offset="0" stop-color="#1d40b2"/><stop offset="1" stop-color="#1680d6"/></linearGradient><path fill="url(#c)" d="M554.5 232.4V160h-72.3v20.1H313.4V160h-72.3v20.1H72.3V160H0v72.4h20.1v88.5H0v72.4h20.1v88.5H0v72.4h72.3V534h168.8v20.1h72.3V534h168.8v20.1h72.3v-72.4h-20.1v-88.5h20.1v-72.4h-20.1v-88.5h20.1zm-297.3-56.3h40.2v40.2h-40.2v-40.2zM16.1 216.3v-40.2h40.2v40.2H16.1zm0 160.9V337h40.2v40.2H16.1zM56.3 538H16.1v-40.2h40.2V538zm241.1 0h-40.2v-40.2h40.2V538zm184.8-36.2H313.4v-20.1h-72.3v20.1H72.3v-20.1H52.2v-88.5h20.1v-72.4H52.2v-88.5h20.1v-20.1h168.8v20.1h72.3v-20.1h168.8v20.1h20.1v88.5h-20.1v72.4h20.1v88.5h-20.1v20.1zm56.3-4V538h-40.2v-40.2h40.2zm0-160.8v40.2h-40.2V337h40.2zm-40.2-120.7v-40.2h40.2v40.2h-40.2z"/><path fill="#1960c4" d="M285.3 328.9h-16.1V349h-20.1v16.1h20.1v20.1h16.1v-20.1h20.1V349h-20.1v-20.1z"/><path fill="#fff" fill-rule="evenodd" d="M575.4 651.4h77.8L519.8 517.9l55.6 133.5zm-55.6-133.5v189l55.5-55.6" clip-rule="evenodd"/></g><path fill="none" d="M0 0h1883v710H0z"/></svg>
