<svg xmlns="http://www.w3.org/2000/svg" width="265" height="100" viewBox="0 0 800 302">
  <g clip-path="url(#a)">
    <path fill="#fff" d="M282.876 128.124v8.779h17.452v35.074h-17.452v8.779h44.308v-8.779h-17.113v-43.853h-27.195Zm14.784-13.148c0 4.284 2.499 7.295 7.37 7.295s7.371-3.011 7.371-7.295c0-4.283-2.5-7.295-7.371-7.295s-7.37 3.012-7.37 7.295Zm43.545 13.148v52.589h9.743v-33.929c0-7.549 2.584-10.942 8.345-10.942 5.76 0 8.344 3.436 8.344 10.942v33.929h9.743v-33.929c0-7.634 2.584-10.942 8.345-10.942 5.761 0 8.345 3.351 8.345 10.942v33.929h9.742V144.07c0-10.433-6.311-17.346-15.757-17.346-4.956 0-9.489 2.205-12.073 5.768h-1.779c-2.584-3.69-6.481-5.768-11.268-5.768-4.956 0-8.683 1.739-10.716 4.92h-1.229v-3.52h-9.785Zm128.434 50.893v-50.893h-9.743v4.75h-2.668c-2.5-3.69-8.049-6.15-14.021-6.15-14.021 0-23.383 10.348-23.383 25.956 0 15.352 9.404 25.616 23.383 25.616 5.76 0 11.352-2.29 14.021-5.768h2.668v5.598c0 8.058-5.676 12.808-15.249 12.808-7.625 0-13.301-3.138-15.25-8.397h-9.573c.551 10.348 10.463 17.176 24.823 17.176 15.503-.042 24.992-8.27 24.992-20.696Zm-40.072-26.337c0-10.434 5.845-16.838 15.419-16.838 9.573 0 15.419 6.404 15.419 16.838 0 10.433-5.846 16.837-15.419 16.837-9.574 0-15.419-6.404-15.419-16.837Zm86.159-25.956c-6.396 0-12.242 2.63-14.699 6.659h-2.668v-5.259h-9.743v70.147h9.743v-22.817h2.668c2.457 4.029 8.345 6.659 14.699 6.659 14.36 0 23.933-11.069 23.933-27.695 0-16.625-9.573-27.694-23.933-27.694Zm-17.706 27.737c0-11.494 6.015-18.576 15.969-18.576 9.912 0 15.97 7.082 15.97 18.576 0 11.493-6.015 18.576-15.97 18.576-9.954 0-15.969-7.125-15.969-18.576Zm56.677-26.337v8.779h12.453v35.074h-12.453v8.779h41.342v-8.779h-19.146V152.68c0-11.155 3.473-16.838 10.293-16.838 5.507 0 8.345 3.224 8.345 9.458v6.192h10.082V143.9c0-10.687-5.761-17.176-15.25-17.176-5.041 0-9.234 1.909-11.522 5.429h-2.668v-4.029h-21.476Zm90.352 54.031c15.673 0 26.136-11.069 26.136-27.694s-10.463-27.695-26.136-27.695-26.136 11.07-26.136 27.695 10.421 27.694 26.136 27.694Zm-16.393-27.694c0-11.494 6.227-18.576 16.393-18.576 10.209 0 16.393 7.082 16.393 18.576 0 11.493-6.184 18.576-16.393 18.576-10.208 0-16.393-7.125-16.393-18.576Zm54.051 26.295h11.183l12.411-18.237.974-2.545h.89l.974 2.545 12.242 18.237h11.861l-17.283-25.871 18.342-26.761h-10.887l-13.894 20.187-.974 2.545h-.89l-.974-2.545-13.301-20.187H681.69l18.172 27.609-17.155 25.023Zm62.226-52.632 19.062 48.221h7.963l-3.177 8.949c-1.61 3.944-3.177 5.598-6.1 5.598-3.177 0-4.871-1.654-6.565-5.598h-8.853c.72 9.203 6.48 14.377 15.969 14.377 6.396 0 11.607-4.199 14.19-11.409l21.434-60.138h-9.912l-13.894 39.442h-3.812l-15.504-39.442h-10.801Z"/>
    <mask id="b" width="280" height="237" x="1" y="67" maskUnits="userSpaceOnUse" style="mask-type:luminance">
      <path fill="#fff" d="M1.186 67.858h279.149v235.381H1.186V67.858Z"/>
    </mask>
    <g mask="url(#b)">
      <path fill="url(#c)" d="M235.883 98.563V67.858h-30.626v8.524h-71.503v-8.524h-30.625v8.524H31.626v-8.524H1v30.705h8.514v37.534H1v30.705h8.514v37.534H1v30.706h30.626v-8.567h71.503v8.524h30.625v-8.524h71.503v8.524h30.626v-30.705h-8.514V166.76h8.514v-30.706h-8.514V98.521h8.514v.042ZM109.948 74.686h17.029v17.049h-17.029v-17.05ZM7.82 91.735v-17.05h17.028v17.05H7.82Zm0 68.239v-17.049h17.028v17.049H7.82Zm17.028 68.197H7.82v-17.049h17.028v17.049Zm102.129 0h-17.029v-17.049h17.029v17.049Zm78.28-15.353h-71.503v-8.524h-30.625v8.524H31.626v-8.524h-8.514V166.76h8.514v-30.706h-8.514V98.521h8.514v-8.525h71.503v8.525h30.625v-8.525h71.503v8.525h8.514v37.533h-8.514v30.706h8.514v37.534h-8.514v8.524Zm23.848-1.696v17.049h-17.028v-17.049h17.028Zm0-68.197v17.049h-17.028v-17.049h17.028Zm-17.028-51.19v-17.05h17.028v17.05h-17.028Z"/>
      <path fill="#fff" fill-rule="evenodd" d="M244.922 276.265h32.956l-56.508-56.618 23.552 56.618Zm-23.552-56.618v80.156l23.51-23.58" clip-rule="evenodd"/>
      <path fill="#1960C4" d="M64.728 170.768c-7.152 0-11.76-5.952-11.76-15.504 0-9.504 4.608-15.456 11.76-15.456 2.928 0 5.472 1.344 6.624 3.504h1.776v-14.016h7.488V170h-7.488v-2.784h-1.776c-1.152 2.208-3.696 3.552-6.624 3.552Zm-4.512-15.504c0 5.616 2.496 8.832 6.672 8.832 4.224 0 6.672-3.216 6.672-8.832 0-5.568-2.448-8.784-6.672-8.784-4.176 0-6.672 3.216-6.672 8.784Zm41.193 15.648c-8.544 0-14.016-6.048-14.016-15.648 0-9.552 5.472-15.6 14.016-15.6s14.016 6.048 14.016 15.6c0 9.6-5.472 15.648-14.016 15.648Zm-6.768-15.648c0 5.664 2.496 8.928 6.768 8.928s6.768-3.264 6.768-8.928c0-5.616-2.496-8.928-6.768-8.928s-6.768 3.312-6.768 8.928Zm41.194 15.648c-8.544 0-13.968-6-13.968-15.504 0-9.648 5.52-15.744 14.208-15.744 7.776 0 12.816 5.04 13.152 12.912h-6.768c-.816-3.936-3.12-6.24-6.432-6.24-4.32 0-6.912 3.36-6.912 9.072 0 5.616 2.496 8.784 6.672 8.784 2.976 0 5.136-1.92 6.048-5.232h6.768c-.624 7.296-5.616 11.952-12.768 11.952Zm27.513-10.08c.864 2.304 2.784 3.6 5.808 3.6 3.216 0 4.992-1.056 4.992-2.88 0-1.488-1.2-2.352-3.792-2.64l-4.176-.48c-6.624-.816-9.792-3.696-9.792-9.024 0-6.048 4.656-9.744 12.48-9.744 8.256 0 12.864 3.696 13.2 10.608h-6.96c-.72-2.64-2.784-4.128-6.288-4.128-3.408 0-5.232 1.056-5.232 2.928 0 1.488 1.2 2.304 3.744 2.64l4.224.48c6.624.768 9.792 3.648 9.792 8.976 0 6.096-4.56 9.744-12.192 9.744-7.92 0-12.384-3.504-12.864-10.08h7.056Z"/>
    </g>
  </g>
  <defs>
    <linearGradient id="c" x1="118.447" x2="118.447" y1="235.012" y2="67.858" gradientUnits="userSpaceOnUse">
      <stop stop-color="#1D40B2"/>
      <stop offset="1" stop-color="#1680D6"/>
    </linearGradient>
    <clipPath id="a">
      <path fill="#fff" d="M0 0h800v301.118H0z"/>
    </clipPath>
  </defs>
</svg>
