<svg xmlns="http://www.w3.org/2000/svg" width="330" height="108" fill="none">
  <path fill="#97E3F8" fill-opacity=".5" d="M72 20H20v6h52v-6Zm0 62H20v6h52v-6ZM0 40h6v28H0V40Zm92 0h-6v28h6V40Z"/>
  <path fill="#0068F1" d="M8 20h14v6H8a2 2 0 0 0-2 2v14H0V28a8 8 0 0 1 8-8Zm62 0v6h14a2 2 0 0 1 2 2v14h6V28a8 8 0 0 0-8-8H70Zm14 62H70v6h14a8 8 0 0 0 8-8V66h-6v14a2 2 0 0 1-2 2ZM6 80V66H0v14a8 8 0 0 0 8 8h14v-6H8a2 2 0 0 1-2-2Zm86.608 10.229 4.578 16.787c.306 1.121 1.807 1.328 2.405.332L104 100l7.348-4.409c.996-.598.789-2.099-.332-2.405l-16.787-4.578a1.32 1.32 0 0 0-1.621 1.62Zm-72.7-28.877c-1.173 0-2.222-.293-3.146-.88-.91-.601-1.613-1.437-2.112-2.508-.484-1.07-.726-2.31-.726-3.718s.242-2.647.726-3.718c.499-1.07 1.203-1.9 2.112-2.486.924-.587 1.973-.88 3.146-.88.733 0 1.408.154 2.024.462.616.308 1.063.711 1.342 1.21h.814v-6.49h3.432V61h-3.432v-1.32h-.814c-.279.499-.726.902-1.342 1.21a4.462 4.462 0 0 1-2.024.462Zm.88-3.102c1.1 0 1.958-.36 2.574-1.078.63-.719.946-1.694.946-2.926 0-1.232-.315-2.2-.946-2.904-.616-.719-1.474-1.078-2.574-1.078-1.1 0-1.965.36-2.596 1.078-.616.704-.924 1.68-.924 2.926 0 1.232.308 2.207.924 2.926.63.704 1.496 1.056 2.596 1.056Zm16.962 3.168c-1.379 0-2.589-.293-3.63-.88a6.338 6.338 0 0 1-2.442-2.53c-.572-1.085-.858-2.34-.858-3.762 0-1.408.286-2.655.858-3.74.587-1.085 1.4-1.921 2.442-2.508 1.041-.601 2.251-.902 3.63-.902s2.589.3 3.63.902a6.048 6.048 0 0 1 2.42 2.508c.587 1.085.88 2.332.88 3.74 0 1.423-.293 2.677-.88 3.762a6.19 6.19 0 0 1-2.42 2.53c-1.041.587-2.251.88-3.63.88Zm0-3.102c1.1 0 1.973-.36 2.618-1.078.645-.733.968-1.73.968-2.992 0-1.247-.323-2.23-.968-2.948-.63-.733-1.503-1.1-2.618-1.1-1.1 0-1.973.367-2.618 1.1-.645.719-.968 1.701-.968 2.948 0 1.261.315 2.259.946 2.992.645.719 1.525 1.078 2.64 1.078Zm16.918 3.102c-1.379 0-2.589-.293-3.63-.88a6.225 6.225 0 0 1-2.42-2.508c-.572-1.07-.858-2.31-.858-3.718 0-1.423.286-2.677.858-3.762a6.26 6.26 0 0 1 2.464-2.552c1.056-.601 2.28-.902 3.674-.902 1.261 0 2.369.25 3.322.748a5.728 5.728 0 0 1 2.288 2.09c.557.88.858 1.907.902 3.08h-3.146c-.205-.88-.609-1.57-1.21-2.068-.587-.499-1.313-.748-2.178-.748-1.13 0-2.017.367-2.662 1.1-.645.733-.968 1.738-.968 3.014 0 1.247.315 2.23.946 2.948.63.704 1.503 1.056 2.618 1.056.748 0 1.4-.205 1.958-.616.557-.425.953-1.012 1.188-1.76h3.146c-.088 1.085-.418 2.046-.99 2.882a5.64 5.64 0 0 1-2.222 1.914c-.91.455-1.936.682-3.08.682Zm13.354-4.62c.205.513.565.917 1.078 1.21.513.279 1.159.418 1.936.418.88 0 1.54-.11 1.98-.33.44-.22.66-.55.66-.99 0-.352-.154-.623-.462-.814-.308-.19-.792-.323-1.452-.396l-2.2-.198c-1.613-.161-2.816-.58-3.608-1.254-.792-.675-1.188-1.628-1.188-2.86 0-1.393.543-2.486 1.628-3.278 1.085-.807 2.589-1.21 4.51-1.21 2.024 0 3.586.418 4.686 1.254 1.115.836 1.709 2.039 1.782 3.608h-3.234c-.176-.587-.543-1.041-1.1-1.364-.543-.337-1.261-.506-2.156-.506-.924 0-1.62.117-2.09.352-.47.22-.704.55-.704.99 0 .323.154.587.462.792.308.19.792.315 1.452.374l2.2.22c1.613.147 2.816.565 3.608 1.254.792.675 1.188 1.628 1.188 2.86 0 1.408-.528 2.508-1.584 3.3-1.041.792-2.508 1.188-4.4 1.188-1.921 0-3.417-.389-4.488-1.166-1.07-.792-1.665-1.943-1.782-3.454h3.278ZM311.948 44.4l6.3 16.2h2.628l-1.188 3.6h-4.356l-7.74-19.8h4.356Zm8.82 24.696c-.528 1.488-1.296 2.64-2.304 3.456a5.34 5.34 0 0 1-3.456 1.224c-1.92 0-3.444-.516-4.572-1.548-1.128-1.008-1.764-2.46-1.908-4.356h3.6c.36.84.732 1.428 1.116 1.764.408.36.924.54 1.548.54.576 0 1.044-.18 1.404-.54.384-.36.744-.948 1.08-1.764l8.172-23.472h4.032l-8.712 24.696Zm-32.58-13.356-7.38-11.34h4.752l5.4 8.28.396 1.044h.36l.396-1.044 5.652-8.28h4.428l-7.452 10.98L301.76 66h-4.824l-4.968-7.488-.396-1.044h-.36l-.396 1.044-5.04 7.488h-4.536l6.948-10.26ZM264.5 66.576c-2.112 0-3.972-.468-5.58-1.404-1.584-.96-2.82-2.292-3.708-3.996-.888-1.728-1.332-3.72-1.332-5.976s.444-4.236 1.332-5.94c.888-1.728 2.124-3.06 3.708-3.996 1.608-.96 3.468-1.44 5.58-1.44s3.96.48 5.544 1.44c1.608.936 2.856 2.268 3.744 3.996.888 1.704 1.332 3.684 1.332 5.94 0 2.256-.444 4.248-1.332 5.976-.888 1.704-2.136 3.036-3.744 3.996-1.584.936-3.432 1.404-5.544 1.404Zm0-3.744c2.064 0 3.684-.684 4.86-2.052 1.2-1.368 1.8-3.228 1.8-5.58s-.6-4.212-1.8-5.58c-1.176-1.368-2.796-2.052-4.86-2.052-2.064 0-3.696.684-4.896 2.052-1.176 1.368-1.764 3.228-1.764 5.58s.588 4.212 1.764 5.58c1.2 1.368 2.832 2.052 4.896 2.052ZM236.528 44.4v1.656h1.08c.456-.72 1.092-1.272 1.908-1.656.816-.384 1.74-.576 2.772-.576 1.92 0 3.432.636 4.536 1.908 1.104 1.248 1.656 2.964 1.656 5.148v2.88h-4.104v-2.304c0-1.272-.288-2.232-.864-2.88-.576-.672-1.416-1.008-2.52-1.008-1.392 0-2.436.588-3.132 1.764-.696 1.152-1.044 2.868-1.044 5.148v7.776h7.488V66H228.32v-3.744h4.536V48.144H227.6V44.4h8.928Zm-35.568 0h3.96v2.16H206c.504-.816 1.296-1.476 2.376-1.98 1.104-.504 2.304-.756 3.6-.756 1.92 0 3.612.48 5.076 1.44 1.488.936 2.628 2.268 3.42 3.996.816 1.704 1.224 3.684 1.224 5.94 0 2.256-.408 4.248-1.224 5.976-.792 1.704-1.932 3.036-3.42 3.996-1.464.936-3.156 1.404-5.076 1.404-1.296 0-2.496-.252-3.6-.756-1.08-.504-1.872-1.164-2.376-1.98h-1.08v9.36h-3.96V44.4Zm10.296 18.432c2.016 0 3.6-.684 4.752-2.052 1.152-1.368 1.728-3.228 1.728-5.58s-.576-4.212-1.728-5.58c-1.152-1.368-2.736-2.052-4.752-2.052-2.016 0-3.6.684-4.752 2.052-1.152 1.368-1.728 3.228-1.728 5.58s.576 4.212 1.728 5.58c1.152 1.368 2.736 2.052 4.752 2.052Zm-18 2.448c0 1.704-.408 3.192-1.224 4.464-.816 1.272-1.992 2.256-3.528 2.952-1.536.72-3.336 1.08-5.4 1.08-1.92 0-3.636-.3-5.148-.9-1.488-.576-2.664-1.404-3.528-2.484-.864-1.056-1.332-2.28-1.404-3.672h3.888c.408 1.08 1.152 1.92 2.232 2.52 1.104.624 2.424.936 3.96.936 1.944 0 3.456-.468 4.536-1.404 1.104-.912 1.656-2.196 1.656-3.852v-2.304h-1.08c-.528.72-1.32 1.296-2.376 1.728a8.49 8.49 0 0 1-3.312.648c-1.872 0-3.528-.432-4.968-1.296-1.44-.888-2.556-2.124-3.348-3.708-.792-1.584-1.188-3.42-1.188-5.508 0-2.112.396-3.972 1.188-5.58.792-1.608 1.908-2.856 3.348-3.744 1.44-.888 3.096-1.332 4.968-1.332 1.2 0 2.316.228 3.348.684 1.056.456 1.836 1.068 2.34 1.836h1.08V44.4h3.96v20.88Zm-16.272-10.8c0 2.136.552 3.828 1.656 5.076 1.128 1.224 2.664 1.836 4.608 1.836 1.944 0 3.468-.612 4.572-1.836 1.128-1.248 1.692-2.94 1.692-5.076 0-2.136-.564-3.816-1.692-5.04-1.104-1.248-2.628-1.872-4.572-1.872s-3.48.624-4.608 1.872c-1.104 1.224-1.656 2.904-1.656 5.04ZM149.84 44.4v1.728h2.844l-2.34 1.44c.072-1.152.456-2.064 1.152-2.736.696-.672 1.608-1.008 2.736-1.008 1.032 0 1.908.396 2.628 1.188.72.768 1.164 1.788 1.332 3.06l-2.34-1.728h4.608l-2.16 1.224c.072-1.128.492-2.028 1.26-2.7.792-.696 1.776-1.044 2.952-1.044 1.416 0 2.556.564 3.42 1.692.888 1.128 1.332 2.604 1.332 4.428V66h-3.96V51.6c0-1.104-.204-1.932-.612-2.484-.384-.552-.972-.828-1.764-.828s-1.392.276-1.8.828c-.384.552-.576 1.38-.576 2.484V66h-3.96V51.6c0-1.104-.204-1.932-.612-2.484-.384-.552-.972-.828-1.764-.828s-1.392.276-1.8.828c-.384.552-.576 1.38-.576 2.484V66h-3.96V44.4h3.96Zm-17.1 0v17.856h7.2V66h-18.36v-3.744h7.2V48.144h-7.2V44.4h11.16Zm-2.268-3.312c-.984 0-1.764-.24-2.34-.72-.552-.504-.828-1.2-.828-2.088 0-.888.276-1.572.828-2.052.576-.504 1.356-.756 2.34-.756.984 0 1.752.252 2.304.756.576.48.864 1.164.864 2.052 0 .888-.288 1.584-.864 2.088-.552.48-1.32.72-2.304.72Z"/>
</svg>
